<?xml version="1.0" standalone="no"?>
<!DOCTYPE svg PUBLIC "-//W3C//DTD SVG 20010904//EN"
 "http://www.w3.org/TR/2001/REC-SVG-20010904/DTD/svg10.dtd">
<svg version="1.0" xmlns="http://www.w3.org/2000/svg"
 width="891.000000pt" height="891.000000pt" viewBox="0 0 891.000000 891.000000"
 preserveAspectRatio="xMidYMid meet">
<metadata>
Created by potrace 1.11, written by Peter Selinger 2001-2013
</metadata>
<g transform="translate(0.000000,891.000000) scale(0.100000,-0.100000)"
fill="#000000" stroke="none">
<path d="M4797 8904 c-1 -1 -58 -4 -127 -8 -69 -4 -138 -9 -155 -11 -16 -2
-50 -6 -75 -9 -25 -2 -79 -10 -120 -16 -41 -6 -86 -13 -100 -15 -21 -3 -165
-32 -258 -51 -71 -15 -296 -79 -403 -114 -376 -127 -811 -341 -1106 -547 -38
-26 -81 -56 -98 -67 -240 -166 -597 -506 -826 -786 -29 -36 -56 -67 -59 -70
-36 -30 -312 -432 -375 -545 -15 -27 -31 -54 -35 -60 -5 -5 -43 -80 -85 -165
-42 -85 -80 -162 -85 -171 -20 -38 -101 -242 -135 -339 -77 -223 -154 -532
-185 -745 -6 -44 -13 -91 -15 -105 -2 -14 -7 -61 -11 -105 -3 -44 -8 -89 -10
-100 -20 -108 -20 -689 0 -850 2 -16 7 -59 11 -95 7 -75 8 -82 30 -210 22
-133 42 -229 71 -345 29 -114 28 -111 90 -305 96 -303 237 -617 396 -882 66
-110 69 -118 60 -152 -25 -90 5 -198 76 -273 64 -67 112 -87 212 -88 90 0 142
18 200 68 123 107 135 300 28 422 -67 76 -125 98 -270 105 -17 0 -205 355
-285 540 -135 311 -245 680 -289 970 -3 19 -7 46 -10 60 -2 14 -6 45 -9 70 -3
25 -7 61 -10 80 -26 196 -27 664 -1 915 13 123 18 162 21 175 2 8 7 35 10 60
4 25 15 88 26 141 11 52 21 104 23 115 2 10 12 48 21 84 203 793 666 1550
1280 2096 339 301 656 500 1130 709 129 57 330 125 515 174 128 34 176 46 280
66 83 17 254 45 305 50 33 4 71 8 85 11 158 26 731 26 890 0 14 -2 52 -8 85
-11 33 -4 71 -9 85 -11 14 -1 41 -6 60 -9 19 -4 46 -9 60 -11 210 -38 555
-135 730 -207 14 -5 30 -11 35 -12 22 -5 275 -120 360 -163 278 -142 631 -394
882 -628 l76 -72 -2 -64 c-4 -125 62 -234 176 -289 67 -33 178 -33 246 0 114
55 177 160 173 286 -5 164 -137 288 -302 286 -43 0 -58 4 -76 22 -38 37 -216
188 -323 273 -297 238 -610 421 -991 579 -135 56 -398 151 -445 160 -9 2 -47
12 -85 24 -136 40 -404 97 -542 116 -15 2 -40 6 -57 8 -16 3 -59 8 -95 12 -36
4 -78 9 -95 11 -96 11 -567 26 -578 18z"/>
<path d="M4705 7739 c-119 -11 -189 -19 -215 -24 -14 -2 -45 -7 -70 -10 -107
-14 -360 -79 -545 -140 -87 -29 -248 -97 -383 -164 -56 -28 -105 -51 -109 -51
-3 0 -31 12 -62 27 -109 54 -252 29 -340 -58 -87 -86 -110 -230 -55 -343 30
-62 71 -103 137 -138 57 -31 203 -33 257 -4 74 40 110 77 145 151 l36 74 88
45 c279 143 589 248 856 291 102 17 115 18 245 32 147 15 584 7 660 -12 8 -2
37 -6 64 -10 313 -39 798 -218 1116 -410 284 -173 513 -366 618 -524 71 -107
93 -231 58 -329 -35 -97 -137 -218 -213 -253 -124 -56 -241 -17 -538 181 -501
333 -745 442 -1148 514 -83 15 -179 21 -332 21 -229 0 -337 -11 -525 -52 -801
-176 -1399 -789 -1581 -1618 -28 -130 -33 -164 -47 -325 -11 -125 -4 -359 13
-464 20 -119 30 -166 55 -262 154 -583 552 -1067 1105 -1342 169 -85 368 -155
500 -178 17 -2 44 -9 60 -13 76 -22 225 -36 385 -36 227 0 291 6 505 49 254
51 564 187 754 332 54 41 71 50 85 42 28 -16 121 -17 175 -3 244 64 299 392
89 535 -122 84 -272 68 -380 -40 -64 -65 -91 -133 -87 -219 3 -57 -2 -63 -141
-153 -117 -76 -210 -122 -355 -173 -34 -12 -157 -43 -215 -54 -153 -29 -239
-36 -430 -36 -218 1 -352 20 -545 79 -613 185 -1099 722 -1268 1401 -16 62
-20 89 -37 210 -9 69 -6 366 5 435 60 401 256 777 551 1060 49 47 107 99 128
115 21 17 44 36 51 42 28 27 205 136 295 182 140 72 330 139 465 166 152 30
246 39 385 39 102 0 224 -8 285 -19 209 -38 318 -72 490 -155 144 -70 246
-133 465 -289 369 -264 461 -306 655 -305 93 0 121 4 185 27 382 138 547 495
415 899 -86 260 -349 517 -841 819 -283 174 -692 329 -1039 393 -50 9 -111 20
-120 21 -5 0 -37 4 -70 8 -33 5 -80 11 -105 13 -74 9 -510 11 -585 3z"/>
<path d="M2291 6549 c-86 -25 -168 -107 -196 -196 -20 -63 -16 -163 8 -210 14
-25 12 -31 -22 -87 -97 -160 -266 -588 -306 -772 -2 -10 -15 -68 -28 -129 -14
-60 -28 -131 -31 -156 -4 -25 -8 -57 -10 -70 -24 -150 -31 -262 -31 -484 0
-115 4 -241 8 -280 9 -81 26 -213 31 -241 2 -10 7 -39 11 -64 4 -25 22 -109
41 -188 179 -752 601 -1380 1261 -1873 226 -170 512 -328 768 -425 170 -64
381 -123 537 -149 18 -3 40 -8 48 -10 8 -3 38 -7 65 -10 28 -3 57 -8 65 -10 8
-2 49 -7 90 -10 41 -4 93 -8 115 -11 107 -11 508 -4 595 11 14 2 50 7 80 10
158 17 422 76 600 135 354 116 601 249 909 490 323 253 357 278 448 323 114
57 197 79 299 80 84 1 96 -1 158 -32 190 -93 215 -336 61 -605 -131 -231 -398
-472 -775 -701 -130 -79 -343 -184 -506 -250 -257 -104 -611 -213 -804 -249
-204 -37 -225 -40 -335 -52 -27 -3 -59 -7 -70 -9 -40 -8 -264 -18 -405 -18
-206 -1 -355 9 -575 38 -34 4 -119 17 -140 21 -11 3 -36 7 -55 10 -55 9 -364
89 -475 123 -394 119 -707 266 -1030 483 l-90 61 -1 71 c0 115 -58 211 -158
264 -44 23 -63 27 -141 27 -103 0 -143 -16 -208 -82 -146 -146 -106 -388 79
-479 47 -23 71 -28 143 -29 l86 -2 113 -76 c286 -193 670 -378 1047 -505 107
-36 309 -93 375 -106 14 -2 79 -16 145 -30 66 -13 138 -27 160 -30 23 -4 50
-8 60 -10 11 -2 52 -7 90 -11 39 -4 79 -9 90 -11 11 -2 54 -6 95 -9 41 -3 107
-7 145 -10 178 -12 587 -1 740 20 16 2 82 11 145 20 63 9 156 24 205 35 50 10
101 21 115 24 65 12 177 41 300 76 968 280 1802 899 2008 1490 109 312 25 575
-238 745 -261 169 -507 177 -766 24 -66 -39 -384 -274 -404 -299 -6 -7 -140
-110 -170 -130 -13 -8 -35 -25 -49 -36 -110 -89 -415 -253 -604 -324 -92 -34
-323 -102 -394 -115 -15 -2 -39 -7 -53 -10 -54 -11 -138 -24 -189 -30 -30 -4
-62 -8 -72 -10 -80 -16 -374 -21 -544 -11 -96 6 -342 39 -385 51 -8 2 -26 6
-40 9 -219 39 -531 151 -765 275 -757 399 -1296 1096 -1501 1940 -30 123 -29
114 -59 308 -20 127 -28 536 -13 693 34 362 129 672 338 1106 44 91 45 92 87
98 90 12 183 77 225 158 26 50 28 57 32 123 12 204 -185 360 -383 304z"/>
</g>
</svg>
